<svg width="320" height="320" viewBox="0 0 320 320" fill="none" xmlns="http://www.w3.org/2000/svg">
<path d="M109.776 26.7646C111.145 28.5513 100.825 67.5558 98.9406 70.4535C98.1228 71.698 96.425 72.9513 95.6073 71.9824C94.025 70.1246 104.247 28.3469 106.407 26.9424C106.958 26.5869 109.678 26.6313 109.785 26.7646H109.776Z" fill="#FF6721"/>
<path d="M137.012 40.3113C138.247 41.7958 138.105 42.4358 137.35 44.0713C136.781 45.298 119.527 63.458 118.221 63.1202C112.007 61.5024 132.639 45.3513 131.972 42.3202C131.714 41.1469 114.176 36.2224 117.759 32.978C118.959 31.8935 135.865 38.9335 137.012 40.3113Z" fill="#FF6721"/>
<path d="M75.1985 56.0091C75.4829 56.7824 90.5407 63.1113 87.6074 65.778C86.3185 66.9513 69.5985 59.7069 69.8385 55.6446C69.9807 53.1113 88.7007 36.9513 90.7007 37.4135C96.7629 38.7913 74.4607 53.9558 75.2074 56.018L75.1985 56.0091Z" fill="#FF6721"/>
<path d="M96.5138 266.125C95.0472 263.742 124.541 220.018 127.243 219.307C130.496 218.454 155.216 227.405 161.198 226.285C158.567 229.396 144.265 234.88 142.585 236.925C141.732 237.965 142.389 238.694 143.883 238.667C145.918 238.631 173.874 224.978 181.412 222.969C211.598 214.934 246.478 222.907 262.745 189.92C263.136 189.129 268.461 177.662 264.078 181.04C263.127 181.778 255.678 197.111 251.189 201.414C246.701 205.716 237.972 211.494 231.261 211.636C235.109 209.262 236.736 199.991 238.816 197.911C240.896 195.831 246.781 195.111 250.745 191.218C264.798 177.422 268.62 123.92 258.069 107.689C249.367 94.3114 221.083 85.3247 219.865 83.378C219.154 82.2402 216.514 65.058 219.429 63.9558C227.598 60.8802 254.549 71.2091 262.558 75.7069C315.705 105.511 339.856 217.334 291.127 259.094C257.367 288.027 176.007 285.396 134.452 277.405C129.607 276.471 97.945 268.454 96.5138 266.125Z" fill="#FF6721"/>
<path d="M186.043 185.485C190.132 183.289 224.247 208.258 217.945 213.849C217.109 214.596 199.82 215.147 195.625 215.92C187.118 217.485 170.363 223.271 163.536 223.511C160.443 223.618 129.358 218.018 128.398 216.507C127.829 215.618 133.438 209.182 129.741 210.32C125.314 211.68 95.8116 265.556 89.0027 268.898C82.8516 271.92 60.7805 269.654 62.5405 259.369C63.3583 254.587 85.2072 213.822 89.2338 207.067C94.4072 198.374 105.989 176.925 117.038 176.827C128.967 176.72 177.509 192.667 184.647 188.978C186.292 188.125 185.874 185.574 186.034 185.485H186.043Z" fill="#171717"/>
<path d="M138.345 167.547C140.736 170.418 175.527 176.534 180.949 180.374C184.149 182.64 184.967 185.982 180.327 186.4L69.0383 163.716C62.0694 156.56 56.8872 96.3558 60.5494 93.2447C63.8916 90.4091 123.5 97.7602 128.007 102.089C135.767 109.538 133.412 161.618 138.345 167.547ZM98.8872 140.018C103.652 135.849 99.6516 117.36 91.7938 120.018C83.9361 122.676 91.7494 146.258 98.8872 140.018Z" fill="#171717"/>
<path d="M108.887 174.854C100.576 184.374 93.9629 194.48 87.4651 205.289C83.0384 212.649 62.9762 255.627 60.5762 257.307C55.8029 260.658 38.4162 255.147 39.2251 246.685C40.034 238.222 64.754 182.614 70.7895 176.196C82.3895 163.867 94.6473 174.489 108.887 174.845V174.854Z" fill="#171717"/>
<path d="M61.0029 265.289C65.154 268.951 10.834 283.796 44.1052 289.716C50.2385 290.809 75.3496 283.191 80.274 279.671C82.0252 278.418 85.4296 269.751 85.8296 276.329C86.1674 281.698 54.8429 293.431 49.8296 293.538C44.8163 293.645 28.4429 288.329 30.114 281.902C31.0918 278.134 59.4207 263.902 61.0029 265.298V265.289Z" fill="#171717"/>
<path d="M37.9539 252.862C36.7984 254.178 1.2695 257.271 6.04283 263.502C7.32283 265.174 43.7939 265.476 45.9362 267.067C46.3984 267.414 45.6873 269.262 44.5228 269.556C42.8517 269.974 13.1984 267.689 10.1139 266.987C-14.4905 261.369 29.1806 249.529 35.9539 250.418C37.4473 250.614 38.7362 251.974 37.9539 252.871V252.862Z" fill="#171717"/>
<path d="M178.932 71.1024C179.234 71.3958 179.43 76.6669 180.843 79.3958C189.456 96.0002 191.438 84.2313 174.798 94.018C164.407 100.125 158.381 111.44 152.763 121.636C150.647 125.476 143.287 148.756 138.194 144.658C136.994 143.698 134.363 116.542 134.514 114.116C135.438 99.8847 173.047 65.4402 178.932 71.1024Z" fill="#FF6721"/>
<path d="M205.661 50.8269C203.856 54.0536 210.363 60.338 212.63 55.378C212.807 54.9958 212.461 44.5336 215.119 51.3247C218.416 59.7602 214.905 63.9647 215.252 69.7158C215.554 74.7647 218.692 81.4402 218.007 86.6313C216.176 100.587 189.474 98.4891 194.896 92.4002C195.51 91.7158 204.176 99.3158 212.185 91.5202C218.71 85.1647 213.003 75.6091 212.603 67.9736C212.461 65.2002 215.91 62.3736 213.954 58.6936C212.123 55.2624 211.794 60.9691 208.79 60.3558C206.016 59.7869 204.407 52.9158 201.599 52.5158C196.879 51.8491 163.679 65.7869 164.683 45.8669C165.261 34.4269 177.394 43.6002 180.256 43.5469C183.83 43.4758 185.803 38.3736 189.323 37.6002C194.025 36.5691 196.461 39.3247 199.705 39.1558C202.95 38.9869 210.567 32.7024 214.452 39.5736C218.959 47.538 206.496 49.3158 205.652 50.8269H205.661Z" fill="#171717"/>
<path d="M182.487 166.862C177.758 169.609 171.252 159.938 170.541 159.831C166.176 159.156 168.941 167.529 165.661 166.862C163.403 161.156 164.914 157.84 171.216 157.245L182.496 166.871C182.603 166.551 185.536 166.276 186.052 161.12C186.541 156.231 182.878 148.676 183.385 148.249C186.914 145.28 219.118 156.862 225.047 157.991L228.594 126.96C231.989 131.84 225.927 158.382 226.843 159.751C227.083 160.116 234.345 160.88 234.816 163.307C228.407 162.658 190.043 148.365 186.941 150.916C186.638 151.165 189.563 155.582 189.501 158.329C189.207 171.814 176.354 168.871 194.905 179.734C204.878 185.574 234.372 196.089 244.541 190.32C259.136 182.045 260.727 133.627 257.278 119.138C252.398 98.658 234.469 97.9291 220.647 86.178C255.145 97.9291 264.443 113.494 261.403 149.547C257.963 190.409 248.292 202.507 207.776 188.151C199.652 185.271 178.985 177.6 182.514 166.862H182.487Z" fill="#171717"/>
<path d="M189.572 91.5024L171.43 102.169C166.105 105.298 146.39 142.747 147.021 145.147C147.385 146.534 152.185 143.902 153.216 144.702C156.967 147.627 140.496 149.627 138.158 150.009C138.594 146.596 142.532 147.947 145.127 145.014C148.727 140.942 154.914 122.196 158.976 115.414C166.096 103.52 174.638 93.0491 189.581 91.4935L189.572 91.5024Z" fill="#171717"/>
<path d="M160.319 150.018C158.603 150.16 145.59 153.698 147.91 150.925C150.23 148.151 165.287 145.085 169.181 147.351C167.199 143.414 162.265 143.671 158.541 142.916C159.883 137.44 176.061 144.676 170.07 148.231C200.523 156.996 168.381 149.351 160.31 150.018C169.065 149.698 153.119 157.174 150.559 159.769C148.514 157.565 158.745 150.08 160.31 150.018H160.319Z" fill="#171717"/>
<path d="M179.812 60.4713C180.31 61.0669 180.541 64.7647 180.727 64.898C181.536 65.5113 183.678 59.938 185.145 61.3602C186.416 62.5869 181.803 63.9647 181.607 67.0047C181.234 72.8447 189.678 87.698 197.198 87.8936C199.003 87.938 211.465 82.4002 204.692 88.4358C191.367 100.311 181.145 75.1113 179.225 65.9558C179.083 65.2624 177.136 57.2891 179.812 60.4802V60.4713Z" fill="#171717"/>
<path d="M172.727 116.329C169.207 123.218 169.065 134.534 163.874 139.369C165.003 132.169 165.998 120.765 172.727 116.329Z" fill="#171717"/>
<path d="M167.403 152.685L155.892 166.862C155.287 160.16 161.154 154.062 167.403 152.685Z" fill="#171717"/>
<path d="M235.679 197.014C236.585 198.445 231.172 209.538 229.483 207.645C228.959 207.058 233.714 193.92 235.679 197.014Z" fill="#171717"/>
<path d="M191.933 74.2368C192.093 74.6279 195.382 73.5612 194.466 75.6146C191.248 82.8057 186.582 68.8501 190.484 69.0012C192.182 69.0723 191.542 73.2857 191.933 74.2368Z" fill="#171717"/>
<path d="M201.99 73.7691C203.394 75.9824 198.71 81.0669 195.794 79.9646C196.248 78.5246 200.879 72.018 201.99 73.7691Z" fill="#171717"/>
<path d="M198.443 59.5913C200.638 61.9647 192.612 61.6269 192.247 61.3424C190.096 59.6802 196.461 57.4491 198.443 59.5913Z" fill="#171717"/>
<path d="M196.665 69.3246C195.75 70.2313 193.11 67.5735 194.016 66.6758C194.923 65.778 197.572 68.4269 196.665 69.3246Z" fill="#171717"/>
<path d="M185.637 69.2856C187.811 70.9826 185.482 74.3549 184.398 70.5586C184.064 69.3819 185.51 69.1838 185.637 69.2856Z" fill="#171717"/>
</svg>
