<svg width="24" height="24" viewBox="0 0 24 24" fill="none" xmlns="http://www.w3.org/2000/svg">
<path fill-rule="evenodd" clip-rule="evenodd" d="M2.46447 15.4645C3.40215 14.5268 4.67392 14 6 14H12C13.3261 14 14.5979 14.5268 15.5355 15.4645C16.4732 16.4021 17 17.6739 17 19V21C17 21.5523 16.5523 22 16 22C15.4477 22 15 21.5523 15 21V19C15 18.2044 14.6839 17.4413 14.1213 16.8787C13.5587 16.3161 12.7956 16 12 16H6C5.20435 16 4.44129 16.3161 3.87868 16.8787C3.31607 17.4413 3 18.2044 3 19V21C3 21.5523 2.55228 22 2 22C1.44772 22 1 21.5523 1 21V19C1 17.6739 1.52678 16.4021 2.46447 15.4645Z" fill="#525150"/>
<path fill-rule="evenodd" clip-rule="evenodd" d="M9 4C7.34315 4 6 5.34315 6 7C6 8.65685 7.34315 10 9 10C10.6569 10 12 8.65685 12 7C12 5.34315 10.6569 4 9 4ZM4 7C4 4.23858 6.23858 2 9 2C11.7614 2 14 4.23858 14 7C14 9.76142 11.7614 12 9 12C6.23858 12 4 9.76142 4 7Z" fill="#525150"/>
<path fill-rule="evenodd" clip-rule="evenodd" d="M18.032 14.8799C18.1701 14.3451 18.7155 14.0236 19.2502 14.1616C20.3229 14.4386 21.2732 15.064 21.9519 15.9395C22.6307 16.8151 22.9994 17.8913 23.0002 18.9991L23.0002 20.9999C23.0002 21.5522 22.5525 21.9999 22.0002 21.9999C21.448 21.9999 21.0002 21.5522 21.0002 20.9999L21.0002 19.0006C21.0002 19.0005 21.0002 19.0007 21.0002 19.0006C20.9997 18.336 20.7784 17.6901 20.3713 17.1649C19.964 16.6395 19.3938 16.2643 18.7502 16.0981C18.2155 15.9601 17.8939 15.4146 18.032 14.8799Z" fill="#525150"/>
<path fill-rule="evenodd" clip-rule="evenodd" d="M15.0315 2.88184C15.1685 2.34681 15.7133 2.02414 16.2483 2.16113C17.3238 2.43651 18.2771 3.06201 18.9578 3.93902C19.6386 4.81603 20.0081 5.89467 20.0081 7.00488C20.0081 8.11509 19.6386 9.19373 18.9578 10.0707C18.2771 10.9478 17.3238 11.5733 16.2483 11.8486C15.7133 11.9856 15.1685 11.6629 15.0315 11.1279C14.8945 10.5929 15.2172 10.0481 15.7522 9.91113C16.3975 9.7459 16.9695 9.3706 17.3779 8.8444C17.7864 8.31819 18.0081 7.67101 18.0081 7.00488C18.0081 6.33875 17.7864 5.69157 17.3779 5.16536C16.9695 4.63915 16.3975 4.26385 15.7522 4.09863C15.2172 3.96164 14.8945 3.41687 15.0315 2.88184Z" fill="#525150"/>
</svg>
